<?xml version="1.0" encoding="UTF-8" standalone="no"?>
<svg
   xmlns:dc="http://purl.org/dc/elements/1.1/"
   xmlns:cc="http://creativecommons.org/ns#"
   xmlns:rdf="http://www.w3.org/1999/02/22-rdf-syntax-ns#"
   xmlns:svg="http://www.w3.org/2000/svg"
   xmlns="http://www.w3.org/2000/svg"
   xmlns:sodipodi="http://sodipodi.sourceforge.net/DTD/sodipodi-0.dtd"
   xmlns:inkscape="http://www.inkscape.org/namespaces/inkscape"
   width="79.5cm"
   height="21.5cm"
   viewBox="0 0 2253.5449 609.4487"
   version="1.1"
   id="svg3728"
   sodipodi:docname="chaos_infusion_logo_layout3.svg"
   inkscape:version="0.92.1 r15371">
  <metadata
     id="metadata3734">
    <rdf:RDF>
      <cc:Work
         rdf:about="">
        <dc:format>image/svg+xml</dc:format>
        <dc:type
           rdf:resource="http://purl.org/dc/dcmitype/StillImage" />
        <dc:title></dc:title>
      </cc:Work>
    </rdf:RDF>
  </metadata>
  <defs
     id="defs3732" />
  <sodipodi:namedview
     pagecolor="#ffffff"
     bordercolor="#666666"
     borderopacity="1"
     objecttolerance="10"
     gridtolerance="10"
     guidetolerance="10"
     inkscape:pageopacity="0"
     inkscape:pageshadow="2"
     inkscape:window-width="1366"
     inkscape:window-height="703"
     id="namedview3730"
     showgrid="false"
     showguides="false"
     inkscape:zoom="0.2799099"
     inkscape:cx="1207.9158"
     inkscape:cy="-25.511804"
     inkscape:window-x="0"
     inkscape:window-y="0"
     inkscape:window-maximized="1"
     inkscape:current-layer="svg3728"
     inkscape:pagecheckerboard="true"
     fit-margin-top="0"
     fit-margin-left="0"
     fit-margin-right="0"
     fit-margin-bottom="0"
     units="cm" />
  <flowRoot
     xml:space="preserve"
     id="flowRoot4484"
     style="font-style:normal;font-weight:normal;font-size:30.00000954px;line-height:1.25;font-family:sans-serif;letter-spacing:0px;word-spacing:0px;fill:#000000;fill-opacity:1;stroke:none;stroke-width:0.75000024"
     transform="translate(0.9978205,424.90436)"><flowRegion
       id="flowRegion4486"
       style="stroke-width:0.75000024"><rect
         id="rect4488"
         width="52.500015"
         height="41.250011"
         x="427.50012"
         y="1435.5569"
         style="stroke-width:0.56250036" /></flowRegion><flowPara
       id="flowPara4490"
       style="stroke-width:0.75000024" /></flowRoot>  <flowRoot
     xml:space="preserve"
     id="flowRoot4492"
     style="font-style:normal;font-weight:normal;font-size:30.00000954px;line-height:1.25;font-family:sans-serif;letter-spacing:0px;word-spacing:0px;fill:#000000;fill-opacity:1;stroke:none;stroke-width:0.75000024"
     transform="translate(0.9978205,424.90436)"><flowRegion
       id="flowRegion4494"
       style="stroke-width:0.75000024"><rect
         id="rect4496"
         width="731.25024"
         height="288.75009"
         x="855.00024"
         y="1806.807"
         style="stroke-width:0.56250036" /></flowRegion><flowPara
       id="flowPara4498"
       style="stroke-width:0.75000024" /></flowRoot>  <flowRoot
     xml:space="preserve"
     id="flowRoot4500"
     style="font-style:normal;font-variant:normal;font-weight:normal;font-stretch:normal;font-size:30.00000954px;line-height:1.25;font-family:LinearKonstrukt;-inkscape-font-specification:LinearKonstrukt;letter-spacing:0px;word-spacing:0px;fill:#000000;fill-opacity:1;stroke:none;stroke-width:0.75000024"
     transform="translate(0.9978205,424.90436)"><flowRegion
       id="flowRegion4502"
       style="font-style:normal;font-variant:normal;font-weight:normal;font-stretch:normal;font-family:LinearKonstrukt;-inkscape-font-specification:LinearKonstrukt;stroke-width:0.75000024"><rect
         id="rect4504"
         width="1305.0004"
         height="821.25024"
         x="416.25012"
         y="876.80664"
         style="font-style:normal;font-variant:normal;font-weight:normal;font-stretch:normal;font-family:LinearKonstrukt;-inkscape-font-specification:LinearKonstrukt;stroke-width:0.56250036" /></flowRegion><flowPara
       id="flowPara4506"
       style="stroke-width:0.75000024" /></flowRoot>  <g
     aria-label="chaos"
     transform="scale(-1,1)"
     style="font-style:normal;font-variant:normal;font-weight:normal;font-stretch:normal;font-size:330.00009155px;line-height:1.25;font-family:LinearKonstrukt;-inkscape-font-specification:LinearKonstrukt;letter-spacing:0px;word-spacing:0px;fill:#000000;fill-opacity:1;stroke:none;stroke-width:0.75000024"
     id="text4510">
    <path
       d="m -1624.2435,76.280167 v 55.110013 h 96.36 v 27.39001 h -96.36 v 27.72001 h -27.39 v -27.72001 h -68.97 v 110.22003 h 192.72 v 27.39001 h -206.25 l -13.86,-13.86001 V 145.25019 l 13.86,-13.86001 h 82.5 V 76.280167 Z"
       style="font-size:330.00009155px;fill:#000000;stroke-width:0.75000024"
       id="path5831" />
    <path
       d="m -1404.1334,76.280167 v 96.360023 h 27.39 V 76.280167 h 27.39 v 96.360023 h 68.97 v 27.39001 h -68.97 v 96.36003 h -27.39 V 200.0302 h -27.39 v 96.36003 h -27.7201 V 200.0302 h -68.64 v -27.39001 h 68.64 V 76.280167 Z"
       style="font-size:330.00009155px;fill:#000000;stroke-width:0.75000024"
       id="path5833" />
    <path
       d="m -1239.1334,296.39023 -9.57,-23.43001 192.39,-192.390052 23.4301,9.570003 V 282.53022 l -13.8601,13.86001 z m 33,-27.39001 h 145.53 V 123.14018 Z"
       style="font-size:330.00009155px;fill:#000000;stroke-width:0.75000024"
       id="path5835" />
    <path
       d="m -950.06365,241.28021 -13.86,-13.53 V 90.140171 l 13.86,-13.860004 h 137.61004 l 13.53,13.860004 V 227.75021 l -13.53,13.53 z m 13.86001,-27.39 h 109.89003 V 104.00017 h -109.89003 z"
       style="font-size:330.00009155px;fill:#000000;stroke-width:0.75000024"
       id="path5837" />
    <path
       d="m -770.88391,76.280167 h 27.39001 v 96.360023 h 178.86005 l 13.86,13.86001 v 109.89003 h -27.72001 V 200.0302 h -178.53005 l -13.86,-13.53 z"
       style="font-size:330.00009155px;fill:#000000;stroke-width:0.75000024"
       id="path5839" />
  </g>
  <flowRoot
     xml:space="preserve"
     id="flowRoot4514"
     style="font-style:normal;font-variant:normal;font-weight:normal;font-stretch:normal;font-size:399.9999766px;line-height:1.25;font-family:LinearKonstrukt;-inkscape-font-specification:LinearKonstrukt;letter-spacing:0px;word-spacing:0px;fill:#000000;fill-opacity:1;stroke:none;"
     transform="matrix(0.75000023,0,0,0.75000023,-56.250017,1201.4661)"><flowRegion
       id="flowRegion4516"
       style="font-size:399.9999766px;"><rect
         id="rect4518"
         width="1715"
         height="595"
         x="75"
         y="-965.9248"
         style="font-size:399.9999766px;" /></flowRegion><flowPara
       id="flowPara4520">infusion</flowPara></flowRoot>  <flowRoot
     xml:space="preserve"
     id="flowRoot4524"
     style="font-style:normal;font-variant:normal;font-weight:normal;font-stretch:normal;font-size:40px;line-height:1.25;font-family:LinearKonstrukt;-inkscape-font-specification:LinearKonstrukt;letter-spacing:0px;word-spacing:0px;fill:#000000;fill-opacity:1;stroke:none"
     transform="matrix(0.75000022,0,0,0.75000022,0.9978205,433.96122)"><flowRegion
       id="flowRegion4526"><rect
         id="rect4528"
         width="1712.782"
         height="649.79083"
         x="-59.980694"
         y="-122.90025" /></flowRegion><flowPara
       id="flowPara4530" /></flowRoot>  <g
     aria-label="infusion"
     transform="scale(-1,1)"
     style="font-style:normal;font-variant:normal;font-weight:normal;font-stretch:normal;font-size:370.00009155px;line-height:1.25;font-family:LinearKonstrukt;-inkscape-font-specification:LinearKonstrukt;letter-spacing:0px;word-spacing:0px;fill:#000000;fill-opacity:1;stroke:none;stroke-width:0.75000018"
     id="text4509">
    <path
       d="m -2193.4607,366.03801 h 108.04 V 319.788 h 30.71 v 46.25001 h 108.0401 v 31.08001 h -108.0401 v 92.50002 h 108.0401 v 30.71001 h -108.0401 v 46.25001 h -30.71 v -46.25001 h -108.04 v -30.71001 h 108.04 v -92.50002 h -108.04 z"
       style="font-size:370.00009155px;stroke-width:0.75000018"
       id="path5814" />
    <path
       d="m -1678.4206,535.86806 -21.83,21.46 -185,-185.00004 v 194.25004 h -30.71 V 335.32801 l 26.27,-10.73001 z"
       style="font-size:370.00009155px;stroke-width:0.75000018"
       id="path5816" />
    <path
       d="m -1653.6364,427.82803 h 108.0401 v -30.71001 h -108.0401 v -31.08001 h 108.0401 V 319.788 h 30.71 v 46.25001 h 108.04 v 31.08001 h -108.04 v 30.71001 h 108.04 v 30.71001 h -108.04 v 108.04002 h -30.71 V 458.53804 h -108.0401 z"
       style="font-size:370.00009155px;stroke-width:0.75000018"
       id="path5818" />
    <path
       d="m -1144.8862,319.788 v 200.54005 h 15.54 v 30.71001 h -15.54 v 15.54 h -30.71 v -15.54 h -185.0001 l -15.54,-15.17 V 319.788 h 30.71 v 200.54005 h 169.8301 V 319.788 Z"
       style="font-size:370.00009155px;stroke-width:0.75000018"
       id="path5820" />
    <path
       d="m -1098.6362,319.788 h 30.71 v 108.04003 h 200.54003 l 15.54,15.54 v 123.21003 h -31.08001 V 458.53804 h -200.17002 l -15.54,-15.17001 z"
       style="font-size:370.00009155px;stroke-width:0.75000018"
       id="path5822" />
    <path
       d="M -821.13623,366.03801 H -713.0962 V 319.788 h 30.71 v 46.25001 h 108.04003 v 31.08001 H -682.3862 v 92.50002 h 108.04003 v 30.71001 H -682.3862 v 46.25001 h -30.71 v -46.25001 h -108.04003 v -30.71001 h 108.04003 v -92.50002 h -108.04003 z"
       style="font-size:370.00009155px;stroke-width:0.75000018"
       id="path5824" />
    <path
       d="m -497.3861,504.78805 -15.54,-15.17001 V 335.32801 l 15.54,-15.54001 h 154.29004 l 15.17,15.54001 v 154.29003 l -15.17,15.17001 z m 15.54001,-30.71001 h 123.21003 V 350.86801 h -123.21003 z"
       style="font-size:370.00009155px;stroke-width:0.75000018"
       id="path5826" />
    <path
       d="m -58.94749,535.86806 -21.830005,21.46 -185.000045,-185.00004 v 194.25004 h -30.71001 V 335.32801 l 26.27001,-10.73001 z"
       style="font-size:370.00009155px;stroke-width:0.75000018"
       id="path5828" />
  </g>
</svg>
