<?xml version="1.0" encoding="UTF-8" standalone="no"?>
<svg
   xmlns:dc="http://purl.org/dc/elements/1.1/"
   xmlns:cc="http://creativecommons.org/ns#"
   xmlns:rdf="http://www.w3.org/1999/02/22-rdf-syntax-ns#"
   xmlns:svg="http://www.w3.org/2000/svg"
   xmlns="http://www.w3.org/2000/svg"
   xmlns:sodipodi="http://sodipodi.sourceforge.net/DTD/sodipodi-0.dtd"
   xmlns:inkscape="http://www.inkscape.org/namespaces/inkscape"
   width="30.516857in"
   height="2.0736997in"
   viewBox="0 0 2197.2153 149.30635"
   version="1.1"
   id="svg3728"
   sodipodi:docname="chaos_infusion_logo.svg"
   inkscape:version="0.92.1 r15371">
  <metadata
     id="metadata3734">
    <rdf:RDF>
      <cc:Work
         rdf:about="">
        <dc:format>image/svg+xml</dc:format>
        <dc:type
           rdf:resource="http://purl.org/dc/dcmitype/StillImage" />
        <dc:title></dc:title>
      </cc:Work>
    </rdf:RDF>
  </metadata>
  <defs
     id="defs3732" />
  <sodipodi:namedview
     pagecolor="#ffffff"
     bordercolor="#666666"
     borderopacity="1"
     objecttolerance="10"
     gridtolerance="10"
     guidetolerance="10"
     inkscape:pageopacity="0"
     inkscape:pageshadow="2"
     inkscape:window-width="2560"
     inkscape:window-height="1381"
     id="namedview3730"
     showgrid="false"
     showguides="false"
     inkscape:zoom="0.79053204"
     inkscape:cx="700.34635"
     inkscape:cy="-195.86769"
     inkscape:window-x="0"
     inkscape:window-y="0"
     inkscape:window-maximized="1"
     inkscape:current-layer="svg3728"
     inkscape:pagecheckerboard="true"
     fit-margin-top="0"
     fit-margin-left="0"
     fit-margin-right="0"
     fit-margin-bottom="0" />
  <path
     id="Selection"
     d="m 82.51205,0.70710075 c 0,0 0,36.00000025 0,36.00000025 0,0 65,0 65,0 0,0 0,18 0,18 0,0 -65,0 -65,0 0,0 0,20 0,20 0,0 -18,0 -18,0 0,0 0,-20 0,-20 0,0 -46,0 -46,0 0,0 0,75.999999 0,75.999999 0,0 129,0 129,0 0,0 0,18 0,18 0,0 -113,0 -113,0 -4.36,0 -22.12,0.46 -25.0000001,-0.6 -3.36,-1.24 -7.16,-5.04 -8.4,-8.4 -0.72000004,-1.94 -0.60000004,-4.91 -0.60000004,-7 0,0 0,-79.999999 0,-79.999999 0.01,-6.83 1.78000004,-12.74 9.00000004,-15.4 1.9400001,-0.72 4.9100001,-0.6 7.0000001,-0.6 0,0 48,0 48,0 0,0 0,-36.00000025 0,-36.00000025 0,0 18,0 18,0 z m 148,0 c 0,0 0,65.00000025 0,65.00000025 0,0 18,0 18,0 0,0 0,-65.00000025 0,-65.00000025 0,0 18,0 18,0 0,0 0,65.00000025 0,65.00000025 0,0 46,0 46,0 0,0 0,18 0,18 0,0 -46,0 -46,0 0,0 0,64.999999 0,64.999999 0,0 -18,0 -18,0 0,0 0,-64.999999 0,-64.999999 0,0 -18,0 -18,0 0,0 0,64.999999 0,64.999999 0,0 -20,0 -20,0 0,0 0,-64.999999 0,-64.999999 0,0 -45,0 -45,0 0,0 0,-18 0,-18 0,0 45,0 45,0 0,0 0,-65.00000025 0,-65.00000025 0,0 20,0 20,0 z m 327,0 c 0,0 58,0 58,0 2.09,0 5.06,-0.12 7,0.60000005 7.22,2.66 8.99,8.57 9,15.4000002 0,0 0,78 0,78 -0.01,6.829999 -1.78,12.739999 -9,15.399999 -1.94,0.72 -4.91,0.6 -7,0.6 0,0 -78,0 -78,0 -6.83,-0.01 -12.74,-1.78 -15.4,-9 -0.72,-1.939999 -0.6,-4.909999 -0.6,-6.999999 0,0 0,-66 0,-66 0,-11.68 -2.86,-19.7200002 8,-26.9800002 5.72,-1.91000005 21.16,-1.02000005 28,-1.02000005 z m 112,0 c 0,0 0,65.00000025 0,65.00000025 0,0 99,0 99,0 9.98,0 25.01,-2.93 29.4,9 0.72,1.94 0.6,4.91 0.6,7 0,0 0,66.999999 0,66.999999 0,0 -19,0 -19,0 0,0 0,-64.999999 0,-64.999999 0,0 -98,0 -98,0 -9.98,0 -25.01,2.93 -29.4,-9 -0.72,-1.94 -0.6,-4.91 -0.6,-7 0,0 0,-67.00000025 0,-67.00000025 0,0 18,0 18,0 z m 338.99995,0 c 0,0 0,27.00000025 0,27.00000025 0,0 65,0 65,0 0,0 0,20 0,20 0,0 -65,0 -65,0 0,0 0,53.999999 0,53.999999 0,0 65,0 65,0 0,0 0,18 0,18 0,0 -65,0 -65,0 0,0 0,29 0,29 0,0 -17.99995,0 -17.99995,0 0,0 0,-29 0,-29 0,0 -64,0 -64,0 0,0 0,-18 0,-18 0,0 64,0 64,0 0,0 0,-53.999999 0,-53.999999 0,0 -64,0 -64,0 0,0 0,-20 0,-20 0,0 64,0 64,0 0,0 0,-27.00000025 0,-27.00000025 0,0 17.99995,0 17.99995,0 z m 321,0 c 0,0 0,27.00000025 0,27.00000025 0,0 65,0 65,0 0,0 0,20 0,20 0,0 -65,0 -65,0 0,0 0,18 0,18 0,0 65,0 65,0 0,0 0,18 0,18 0,0 -65,0 -65,0 0,0 0,64.999999 0,64.999999 0,0 -18,0 -18,0 0,0 0,-64.999999 0,-64.999999 0,0 -64,0 -64,0 0,0 0,-18 0,-18 0,0 64,0 64,0 0,0 0,-18 0,-18 0,0 -64,0 -64,0 0,0 0,-20 0,-20 0,0 64,0 64,0 0,0 0,-27.00000025 0,-27.00000025 0,0 18,0 18,0 z m 101,0 c 0,0 0,119.99999925 0,119.99999925 0,0 102,0 102,0 0,0 0,-119.99999925 0,-119.99999925 0,0 18,0 18,0 0,0 0,119.99999925 0,119.99999925 0,0 9,0 9,0 0,0 0,18 0,18 0,0 -9,0 -9,0 0,0 0,10 0,10 0,0 -18,0 -18,0 0,0 0,-10 0,-10 0,0 -92,0 -92,0 -9.74,0 -23.13,2.59 -27.4,-9 -0.72,-1.94 -0.6,-4.91 -0.6,-7 0,0 0,-121.99999925 0,-121.99999925 0,0 18,0 18,0 z m 165,0 c 0,0 0,65.00000025 0,65.00000025 0,0 99,0 99,0 9.98,0 25.01,-2.93 29.4,9 0.72,1.94 0.6,4.91 0.6,7 0,0 0,66.999999 0,66.999999 0,0 -19,0 -19,0 0,0 0,-64.999999 0,-64.999999 0,0 -98,0 -98,0 -9.98,0 -25.01,2.93 -29.4,-9 -0.72,-1.94 -0.6,-4.91 -0.6,-7 0,0 0,-67.00000025 0,-67.00000025 0,0 18,0 18,0 z m 229,0 c 0,0 0,27.00000025 0,27.00000025 0,0 65,0 65,0 0,0 0,20 0,20 0,0 -65,0 -65,0 0,0 0,53.999999 0,53.999999 0,0 65,0 65,0 0,0 0,18 0,18 0,0 -65,0 -65,0 0,0 0,29 0,29 0,0 -18,0 -18,0 0,0 0,-29 0,-29 0,0 -64,0 -64,0 0,0 0,-18 0,-18 0,0 64,0 64,0 0,0 0,-53.999999 0,-53.999999 0,0 -64,0 -64,0 0,0 0,-20 0,-20 0,0 64,0 64,0 0,0 0,-27.00000025 0,-27.00000025 0,0 18,0 18,0 z m 136,0 c 0,0 58,0 58,0 11.07,0.02 15.98,4.93000005 16,16.00000025 0,0 0,78 0,78 0,2.09 0.12,5.06 -0.6,6.999999 -2.66,7.22 -8.57,8.99 -15.4,9 0,0 -78,0 -78,0 -2.09,0 -5.06,0.12 -7,-0.6 -7.22,-2.66 -8.99,-8.57 -9,-15.399999 0,0 0,-66 0,-66 0,-11.68 -2.86,-19.7200002 8,-26.9800002 5.72,-1.91000005 21.16,-1.02000005 28,-1.02000005 z M 476.49205,10.117101 c 1.24,1.89 1.02,5.37 1.02,7.59 0,0 0,99.999999 0,99.999999 0,10.13 3.08,25.95 -9,30.4 -1.94,0.72 -4.91,0.6 -7,0.6 0,0 -114,0 -114,0 -2.26,0 -5.68,0.22 -7.61,-1.02 -3.25,-2.1 -6.97,-12.35 -5.33,-15.98 1.44,-3.18 15.51,-16.57 18.94,-20 0,0 19.96,-19.999999 19.96,-19.999999 0,0 9.05,-10 9.05,-10 0,0 42.99,-43 42.99,-43 6.73,-6.73 28.98,-30.0400002 35,-33.9400002 4.01,-0.96 13.56,1.7 15.98,5.3500002 z m 615.01995,7.59 c 0,-2.22 -0.22,-5.7 1.02,-7.59 2.08,-3.1300002 12.42,-6.9600002 15.98,-5.3500002 3.27,1.48 17.43,16.3700002 21,19.9400002 0,0 69,69 69,69 0,0 35,35.999999 35,35.999999 -2.81,2.81 -10.99,12.67 -15,11.66 -2.47,-0.61 -7.99,-6.65 -10,-8.66 0,0 -21,-21 -21,-21 0,0 -78,-77.999999 -78,-77.999999 0,0 0,114.999999 0,114.999999 0,0 -18,0 -18,0 0,0 0,-130.999999 0,-130.999999 z m 963,0 c 0,-2.22 -0.22,-5.7 1.02,-7.59 2.08,-3.1300002 12.42,-6.9600002 15.98,-5.3500002 3.27,1.48 17.43,16.3700002 21,19.9400002 0,0 69,69 69,69 0,0 35,35.999999 35,35.999999 -2.81,2.81 -10.99,12.67 -15,11.66 -2.47,-0.61 -7.99,-6.65 -10,-8.66 0,0 -21,-21 -21,-21 0,0 -78,-77.999999 -78,-77.999999 0,0 0,114.999999 0,114.999999 0,0 -18,0 -18,0 0,0 0,-130.999999 0,-130.999999 z m -1513.99995,2 c 0,0 0,73 0,73 0,0 73,0 73,0 0,0 0,-73 0,-73 0,0 -73,0 -73,0 z m 1402.99995,0 c 0,0 0,73 0,73 0,0 73,0 73,0 0,0 0,-73 0,-73 0,0 -73,0 -73,0 z m -1500.03995,29 c 0,0 -23.96,24 -23.96,24 0,0 -41.09,41.999999 -41.09,41.999999 0,0 -14.91,16 -14.91,16 0,0 95,0 95,0 0,0 0,-96.999999 0,-96.999999 0,0 -15.04,15 -15.04,15 z"
     style="fill:#000000;stroke:#000000;stroke-width:1"
     inkscape:connector-curvature="0" />
</svg>
